<svg xmlns="http://www.w3.org/2000/svg" width="1056" height="236" viewBox="0 0 1056 236"><defs><mask id="uhq5b" width="2" height="2" x="-1" y="-1"><path fill="#fff" d="M38 29h980v160H38z"/><path d="M118 29h860c22.12 0 40 17.88 40 40v80c0 22.12-17.88 40-40 40H78c-22.12 0-40-17.88-40-40V69l80-40z"/></mask><filter id="uhq5a" width="1100" height="289" x="-22" y="-31" filterUnits="userSpaceOnUse"><feOffset dy="9" in="SourceGraphic" result="FeOffset1023Out"/><feGaussianBlur in="FeOffset1023Out" result="FeGaussianBlur1024Out" stdDeviation="20 20"/></filter><clipPath id="uhq5c"><path fill="#fff" d="M118 29h860c22.12 0 40 17.88 40 40v80c0 22.12-17.88 40-40 40H78c-22.12 0-40-17.88-40-40V69l80-40z"/></clipPath></defs><g><g><g filter="url(#uhq5a)"><path fill="none" d="M118 29h860c22.12 0 40 17.88 40 40v80c0 22.12-17.88 40-40 40H78c-22.12 0-40-17.88-40-40V69l80-40z" mask="url(&quot;#uhq5b&quot;)"/><path fill-opacity=".1" d="M118 29h860c22.12 0 40 17.88 40 40v80c0 22.12-17.88 40-40 40H78c-22.12 0-40-17.88-40-40V69l80-40z"/></g><path fill="#fff" d="M118 29h860c22.12 0 40 17.88 40 40v80c0 22.12-17.88 40-40 40H78c-22.12 0-40-17.88-40-40V69l80-40z"/><path fill="none" stroke="#32c5ff" stroke-miterlimit="50" stroke-width="6" d="M118 29v0h860c22.12 0 40 17.88 40 40v80c0 22.12-17.88 40-40 40H78c-22.12 0-40-17.88-40-40V69v0l80-40v0z" clip-path="url(&quot;#uhq5c&quot;)"/></g></g></svg>